<svg width="66" height="34" viewBox="0 0 66 34" fill="none" xmlns="http://www.w3.org/2000/svg">
<path fill-rule="evenodd" clip-rule="evenodd" d="M11.63 6C11.63 2.99557 9.19443 0.559998 6.19 0.559998C3.18557 0.559998 0.75 2.99557 0.75 6V22.45L5.23 25.66V33.48H7.15V25.66L11.63 22.45V6ZM9.70999 15.2L7.14999 17.76V15.36L9.70999 12.8V15.2ZM5.26999 15.36L2.70999 12.8V15.2L5.26999 17.76V15.36ZM9.71001 10.08L6.19001 13.6L2.67001 10V7.6L6.19001 11.12L9.71001 7.6V10.08ZM9.59001 5.08999C9.17202 3.55476 7.78111 2.48704 6.19001 2.47999V2.43999C4.5875 2.45191 3.19287 3.5389 2.79001 5.08999L6.19001 8.47999L9.59001 5.08999ZM2.67001 21.48V17.88L5.23001 20.44V23.3L2.67001 21.48ZM7.14999 20.44V23.31L9.70999 21.47V17.88L7.14999 20.44Z" fill="#FFAC12"/>
<path d="M25.976 17.272C25.144 17.272 24.728 16.9147 24.728 16.2C24.728 15.9653 24.76 15.6987 24.824 15.4C24.8987 15.0907 25 14.696 25.128 14.216C25.2773 13.7147 25.3893 13.288 25.464 12.936C25.5387 12.584 25.576 12.2693 25.576 11.992C25.576 11.2667 25.256 10.904 24.616 10.904C24.4453 10.904 24.2693 10.9253 24.088 10.968L22.808 17H20.504L22.68 6.824L25.048 6.504L24.264 10.2H24.392C24.808 10.2 25.192 10.056 25.544 9.768C25.896 9.48 26.168 9.12267 26.36 8.696C26.5627 8.25867 26.664 7.832 26.664 7.416C26.664 6.92533 26.5147 6.52533 26.216 6.216C25.928 5.896 25.4907 5.736 24.904 5.736C24.04 5.736 23.2827 5.89067 22.632 6.2C21.9813 6.50933 21.4747 6.95733 21.112 7.544C20.76 8.13067 20.584 8.824 20.584 9.624C20.584 10.0187 20.6213 10.296 20.696 10.456C20.7707 10.6053 20.808 10.6907 20.808 10.712C20.232 10.712 19.8 10.5947 19.512 10.36C19.2347 10.1147 19.096 9.71467 19.096 9.16C19.096 8.47733 19.3733 7.816 19.928 7.176C20.4933 6.52533 21.2133 6.00267 22.088 5.608C22.9627 5.20267 23.8373 5 24.712 5C25.512 5 26.184 5.11733 26.728 5.352C27.272 5.58667 27.6773 5.90133 27.944 6.296C28.2107 6.68 28.344 7.10133 28.344 7.56C28.344 8.06133 28.1893 8.56267 27.88 9.064C27.5707 9.56533 27.1493 9.976 26.616 10.296C27.0213 10.4133 27.304 10.6107 27.464 10.888C27.6347 11.1547 27.72 11.4907 27.72 11.896C27.72 12.2053 27.6827 12.536 27.608 12.888C27.5333 13.2293 27.4267 13.656 27.288 14.168C27.2027 14.4987 27.1227 14.824 27.048 15.144C26.9733 15.464 26.936 15.7307 26.936 15.944C26.936 16.1893 26.9893 16.408 27.096 16.6C27.2133 16.792 27.368 16.9253 27.56 17C26.9093 17.1813 26.3813 17.272 25.976 17.272ZM31.1628 17.288C30.1921 17.288 29.4561 17.0213 28.9548 16.488C28.4641 15.9547 28.2188 15.2827 28.2188 14.472C28.2188 13.896 28.3361 13.32 28.5708 12.744C28.8161 12.1573 29.1628 11.6453 29.6108 11.208C30.0588 10.7707 30.5815 10.4773 31.1788 10.328C30.8481 10.0933 30.6028 9.81067 30.4428 9.48C30.2828 9.13867 30.2028 8.78133 30.2028 8.408C30.2028 7.85333 30.3521 7.30933 30.6508 6.776C30.9601 6.24267 31.3815 5.81067 31.9148 5.48C32.4588 5.13867 33.0561 4.968 33.7068 4.968C34.3788 4.968 34.9281 5.144 35.3548 5.496C35.7815 5.848 35.9948 6.33867 35.9948 6.968C35.9948 7.43733 35.8775 7.832 35.6428 8.152C35.4081 8.472 35.1308 8.632 34.8108 8.632C34.5228 8.632 34.2721 8.488 34.0588 8.2C34.2508 8.136 34.4161 7.96 34.5548 7.672C34.6935 7.384 34.7628 7.096 34.7628 6.808C34.7628 6.49867 34.6775 6.27467 34.5068 6.136C34.3361 5.98667 34.1281 5.912 33.8828 5.912C33.5735 5.912 33.2908 6.024 33.0348 6.248C32.7895 6.46133 32.5975 6.744 32.4588 7.096C32.3201 7.43733 32.2508 7.79467 32.2508 8.168C32.2508 8.68 32.3841 9.13333 32.6508 9.528C32.9175 9.912 33.3228 10.1733 33.8668 10.312C33.3228 10.4293 32.8321 10.696 32.3948 11.112C31.9575 11.528 31.6161 12.0133 31.3708 12.568C31.1255 13.112 31.0028 13.6347 31.0028 14.136C31.0028 14.616 31.1255 15.0053 31.3708 15.304C31.6268 15.6027 32.0108 15.752 32.5228 15.752C33.0561 15.752 33.6108 15.608 34.1868 15.32C34.7735 15.0213 35.2055 14.6213 35.4828 14.12L35.8508 14.28C35.4348 15.1973 34.7948 15.928 33.9308 16.472C33.0668 17.016 32.1441 17.288 31.1628 17.288Z" fill="white"/>
<path d="M24.232 31.204C23.608 31.204 23.296 30.936 23.296 30.4C23.296 30.224 23.32 30.024 23.368 29.8C23.424 29.568 23.5 29.272 23.596 28.912C23.708 28.536 23.792 28.216 23.848 27.952C23.904 27.688 23.932 27.452 23.932 27.244C23.932 26.7 23.692 26.428 23.212 26.428C23.084 26.428 22.952 26.444 22.816 26.476L21.856 31H20.128L21.76 23.368L23.536 23.128L22.948 25.9H23.044C23.356 25.9 23.644 25.792 23.908 25.576C24.172 25.36 24.376 25.092 24.52 24.772C24.672 24.444 24.748 24.124 24.748 23.812C24.748 23.444 24.636 23.144 24.412 22.912C24.196 22.672 23.868 22.552 23.428 22.552C22.78 22.552 22.212 22.668 21.724 22.9C21.236 23.132 20.856 23.468 20.584 23.908C20.32 24.348 20.188 24.868 20.188 25.468C20.188 25.764 20.216 25.972 20.272 26.092C20.328 26.204 20.356 26.268 20.356 26.284C19.924 26.284 19.6 26.196 19.384 26.02C19.176 25.836 19.072 25.536 19.072 25.12C19.072 24.608 19.28 24.112 19.696 23.632C20.12 23.144 20.66 22.752 21.316 22.456C21.972 22.152 22.628 22 23.284 22C23.884 22 24.388 22.088 24.796 22.264C25.204 22.44 25.508 22.676 25.708 22.972C25.908 23.26 26.008 23.576 26.008 23.92C26.008 24.296 25.892 24.672 25.66 25.048C25.428 25.424 25.112 25.732 24.712 25.972C25.016 26.06 25.228 26.208 25.348 26.416C25.476 26.616 25.54 26.868 25.54 27.172C25.54 27.404 25.512 27.652 25.456 27.916C25.4 28.172 25.32 28.492 25.216 28.876C25.152 29.124 25.092 29.368 25.036 29.608C24.98 29.848 24.952 30.048 24.952 30.208C24.952 30.392 24.992 30.556 25.072 30.7C25.16 30.844 25.276 30.944 25.42 31C24.932 31.136 24.536 31.204 24.232 31.204ZM27.4205 31.072C26.8285 31.072 26.3685 30.92 26.0405 30.616C25.7125 30.304 25.5485 29.82 25.5485 29.164C25.5485 28.612 25.6565 28.004 25.8725 27.34C26.0885 26.676 26.4405 26.104 26.9285 25.624C27.4165 25.136 28.0365 24.892 28.7885 24.892C29.6685 24.892 30.1085 25.276 30.1085 26.044C30.1085 26.492 29.9805 26.904 29.7245 27.28C29.4685 27.656 29.1285 27.96 28.7045 28.192C28.2805 28.416 27.8285 28.544 27.3485 28.576C27.3325 28.816 27.3245 28.976 27.3245 29.056C27.3245 29.448 27.3925 29.716 27.5285 29.86C27.6645 29.996 27.8845 30.064 28.1885 30.064C28.6205 30.064 28.9885 29.964 29.2925 29.764C29.6045 29.564 29.9445 29.26 30.3125 28.852H30.7205C29.8325 30.332 28.7325 31.072 27.4205 31.072ZM27.4445 28C27.7405 27.984 28.0205 27.88 28.2845 27.688C28.5565 27.496 28.7725 27.252 28.9325 26.956C29.1005 26.66 29.1845 26.348 29.1845 26.02C29.1845 25.692 29.0845 25.528 28.8845 25.528C28.5965 25.528 28.3125 25.78 28.0325 26.284C27.7605 26.788 27.5645 27.36 27.4445 28ZM31.2474 31.072C30.7914 31.072 30.4114 30.916 30.1074 30.604C29.8034 30.292 29.6514 29.804 29.6514 29.14C29.6514 28.548 29.7674 27.928 29.9994 27.28C30.2394 26.624 30.5914 26.072 31.0554 25.624C31.5274 25.168 32.0874 24.94 32.7354 24.94C33.0634 24.94 33.3074 24.996 33.4674 25.108C33.6274 25.22 33.7074 25.368 33.7074 25.552V25.636L33.8394 25H35.5674L34.7034 29.08C34.6714 29.2 34.6554 29.328 34.6554 29.464C34.6554 29.808 34.8194 29.98 35.1474 29.98C35.3714 29.98 35.5634 29.876 35.7234 29.668C35.8914 29.46 36.0234 29.188 36.1194 28.852H36.6234C36.3274 29.716 35.9594 30.304 35.5194 30.616C35.0874 30.92 34.6514 31.072 34.2114 31.072C33.8754 31.072 33.6034 30.98 33.3954 30.796C33.1954 30.604 33.0754 30.328 33.0354 29.968C32.8034 30.296 32.5434 30.564 32.2554 30.772C31.9754 30.972 31.6394 31.072 31.2474 31.072ZM32.0274 29.908C32.2274 29.908 32.4234 29.816 32.6154 29.632C32.8154 29.44 32.9514 29.18 33.0234 28.852L33.5994 26.14C33.5994 26.036 33.5594 25.936 33.4794 25.84C33.3994 25.736 33.2754 25.684 33.1074 25.684C32.7874 25.684 32.4994 25.872 32.2434 26.248C31.9874 26.616 31.7874 27.064 31.6434 27.592C31.4994 28.112 31.4274 28.572 31.4274 28.972C31.4274 29.372 31.4834 29.628 31.5954 29.74C31.7154 29.852 31.8594 29.908 32.0274 29.908ZM36.7852 31.072C36.4012 31.072 36.0892 30.952 35.8492 30.712C35.6172 30.464 35.5012 30.096 35.5012 29.608C35.5012 29.408 35.5332 29.148 35.5972 28.828L36.8812 22.816L38.6572 22.576L37.2772 29.056C37.2452 29.176 37.2292 29.292 37.2292 29.404C37.2292 29.724 37.3932 29.884 37.7212 29.884C37.8652 29.884 37.9932 29.86 38.1052 29.812C38.0732 30.212 37.9292 30.524 37.6732 30.748C37.4252 30.964 37.1292 31.072 36.7852 31.072ZM41.994 31.216C41.266 31.216 40.714 31.016 40.338 30.616C39.97 30.216 39.786 29.712 39.786 29.104C39.786 28.672 39.874 28.24 40.05 27.808C40.234 27.368 40.494 26.984 40.83 26.656C41.166 26.328 41.558 26.108 42.006 25.996C41.758 25.82 41.574 25.608 41.454 25.36C41.334 25.104 41.274 24.836 41.274 24.556C41.274 24.14 41.386 23.732 41.61 23.332C41.842 22.932 42.158 22.608 42.558 22.36C42.966 22.104 43.414 21.976 43.902 21.976C44.406 21.976 44.818 22.108 45.138 22.372C45.458 22.636 45.618 23.004 45.618 23.476C45.618 23.828 45.53 24.124 45.354 24.364C45.178 24.604 44.97 24.724 44.73 24.724C44.514 24.724 44.326 24.616 44.166 24.4C44.31 24.352 44.434 24.22 44.538 24.004C44.642 23.788 44.694 23.572 44.694 23.356C44.694 23.124 44.63 22.956 44.502 22.852C44.374 22.74 44.218 22.684 44.034 22.684C43.802 22.684 43.59 22.768 43.398 22.936C43.214 23.096 43.07 23.308 42.966 23.572C42.862 23.828 42.81 24.096 42.81 24.376C42.81 24.76 42.91 25.1 43.11 25.396C43.31 25.684 43.614 25.88 44.022 25.984C43.614 26.072 43.246 26.272 42.918 26.584C42.59 26.896 42.334 27.26 42.15 27.676C41.966 28.084 41.874 28.476 41.874 28.852C41.874 29.212 41.966 29.504 42.15 29.728C42.342 29.952 42.63 30.064 43.014 30.064C43.414 30.064 43.83 29.956 44.262 29.74C44.702 29.516 45.026 29.216 45.234 28.84L45.51 28.96C45.198 29.648 44.718 30.196 44.07 30.604C43.422 31.012 42.73 31.216 41.994 31.216ZM46.0753 31.072C45.6913 31.072 45.3673 31 45.1033 30.856C44.8393 30.704 44.6433 30.512 44.5153 30.28C44.3873 30.04 44.3233 29.792 44.3233 29.536C44.3233 29.272 44.3873 29.044 44.5153 28.852C44.6353 28.652 44.7833 28.508 44.9593 28.42C45.2713 27.86 45.5433 27.296 45.7753 26.728C46.0073 26.152 46.2273 25.532 46.4353 24.868L48.2113 24.628C48.2513 25.652 48.3193 26.76 48.4153 27.952C48.4553 28.432 48.4753 28.78 48.4753 28.996C48.4753 29.18 48.4593 29.332 48.4273 29.452C48.8033 29.236 49.0913 29.036 49.2913 28.852H49.7953C49.2833 29.444 48.6713 29.944 47.9593 30.352C47.7273 30.6 47.4393 30.784 47.0953 30.904C46.7593 31.016 46.4193 31.072 46.0753 31.072ZM45.6913 30.124C45.9873 30.124 46.2353 30.036 46.4353 29.86C46.6353 29.684 46.7353 29.4 46.7353 29.008C46.7353 28.768 46.7113 28.432 46.6633 28C46.5833 27.088 46.5313 26.476 46.5073 26.164C46.3153 26.796 45.9913 27.552 45.5353 28.432C45.7193 28.528 45.8113 28.668 45.8113 28.852C45.8113 29.004 45.7593 29.14 45.6553 29.26C45.5593 29.38 45.4353 29.44 45.2833 29.44C45.1153 29.44 45.0073 29.388 44.9593 29.284C44.9593 29.572 45.0153 29.784 45.1273 29.92C45.2473 30.056 45.4353 30.124 45.6913 30.124ZM49.9747 31.072C49.5907 31.072 49.2787 30.952 49.0387 30.712C48.8067 30.472 48.6907 30.112 48.6907 29.632C48.6907 29.432 48.7227 29.172 48.7867 28.852L49.5067 25.48H49.1107L49.2067 25H49.6027L49.9627 23.344L51.7387 23.104L51.3307 25H52.0507L51.9547 25.48H51.2347L50.4667 29.08C50.4347 29.2 50.4187 29.328 50.4187 29.464C50.4187 29.624 50.4547 29.74 50.5267 29.812C50.6067 29.876 50.7347 29.908 50.9107 29.908C51.1427 29.908 51.3587 29.812 51.5587 29.62C51.7587 29.42 51.9027 29.164 51.9907 28.852H52.4947C52.1987 29.716 51.8187 30.304 51.3547 30.616C50.8907 30.92 50.4307 31.072 49.9747 31.072ZM52.9234 31.072C52.4674 31.072 52.0874 30.916 51.7834 30.604C51.4794 30.292 51.3274 29.804 51.3274 29.14C51.3274 28.548 51.4434 27.928 51.6754 27.28C51.9154 26.624 52.2674 26.072 52.7314 25.624C53.2034 25.168 53.7634 24.94 54.4114 24.94C54.7394 24.94 54.9834 24.996 55.1434 25.108C55.3034 25.22 55.3834 25.368 55.3834 25.552V25.636L55.5154 25H57.2434L56.3794 29.08C56.3474 29.2 56.3314 29.328 56.3314 29.464C56.3314 29.808 56.4954 29.98 56.8234 29.98C57.0474 29.98 57.2394 29.876 57.3994 29.668C57.5674 29.46 57.6994 29.188 57.7954 28.852H58.2994C58.0034 29.716 57.6354 30.304 57.1954 30.616C56.7634 30.92 56.3274 31.072 55.8874 31.072C55.5514 31.072 55.2794 30.98 55.0714 30.796C54.8714 30.604 54.7514 30.328 54.7114 29.968C54.4794 30.296 54.2194 30.564 53.9314 30.772C53.6514 30.972 53.3154 31.072 52.9234 31.072ZM53.7034 29.908C53.9034 29.908 54.0994 29.816 54.2914 29.632C54.4914 29.44 54.6274 29.18 54.6994 28.852L55.2754 26.14C55.2754 26.036 55.2354 25.936 55.1554 25.84C55.0754 25.736 54.9514 25.684 54.7834 25.684C54.4634 25.684 54.1754 25.872 53.9194 26.248C53.6634 26.616 53.4634 27.064 53.3194 27.592C53.1754 28.112 53.1034 28.572 53.1034 28.972C53.1034 29.372 53.1594 29.628 53.2714 29.74C53.3914 29.852 53.5354 29.908 53.7034 29.908ZM58.4852 31.072C58.1012 31.072 57.7892 30.952 57.5492 30.712C57.3172 30.472 57.2012 30.112 57.2012 29.632C57.2012 29.432 57.2332 29.172 57.2972 28.852L58.0172 25.48H57.6212L57.7172 25H58.1132L58.4732 23.344L60.2492 23.104L59.8412 25H60.5612L60.4652 25.48H59.7452L58.9772 29.08C58.9452 29.2 58.9292 29.328 58.9292 29.464C58.9292 29.624 58.9652 29.74 59.0372 29.812C59.1172 29.876 59.2452 29.908 59.4212 29.908C59.6532 29.908 59.8692 29.812 60.0692 29.62C60.2692 29.42 60.4132 29.164 60.5012 28.852H61.0052C60.7092 29.716 60.3292 30.304 59.8652 30.616C59.4012 30.92 58.9412 31.072 58.4852 31.072ZM61.6859 31.072C61.1019 31.072 60.6459 30.92 60.3179 30.616C59.9899 30.304 59.8259 29.82 59.8259 29.164C59.8259 28.612 59.9339 28.004 60.1499 27.34C60.3659 26.676 60.7179 26.104 61.2059 25.624C61.6939 25.136 62.3139 24.892 63.0659 24.892C63.9459 24.892 64.3859 25.276 64.3859 26.044C64.3859 26.492 64.2579 26.904 64.0019 27.28C63.7459 27.656 63.4059 27.96 62.9819 28.192C62.5579 28.416 62.1059 28.544 61.6259 28.576C61.6099 28.752 61.6019 28.872 61.6019 28.936C61.6019 29.6 61.8499 29.932 62.3459 29.932C62.5699 29.932 62.8099 29.872 63.0659 29.752C63.3219 29.632 63.5539 29.48 63.7619 29.296C63.5459 30.48 62.8539 31.072 61.6859 31.072ZM61.7099 28C62.0139 27.992 62.2979 27.892 62.5619 27.7C62.8339 27.508 63.0499 27.264 63.2099 26.968C63.3779 26.664 63.4619 26.348 63.4619 26.02C63.4619 25.692 63.3619 25.528 63.1619 25.528C62.8819 25.528 62.6019 25.784 62.3219 26.296C62.0499 26.8 61.8459 27.368 61.7099 28Z" fill="white"/>
</svg>
